<svg width="26" height="25" viewBox="0 0 26 25" fill="none" xmlns="http://www.w3.org/2000/svg">
<path d="M13 14.675C11.7951 14.675 10.8161 13.7 10.8161 12.5C10.8161 11.3 11.7867 10.325 13 10.325C14.1965 10.325 15.1839 11.3 15.1839 12.5C15.1839 13.7 14.2049 14.675 13 14.675ZM13 9.175C11.1592 9.175 9.6698 10.6583 9.6698 12.5C9.6698 14.3333 11.1676 15.825 13 15.825C14.8408 15.825 16.3386 14.3333 16.3386 12.5C16.3386 10.6667 14.8408 9.175 13 9.175Z" fill="#111111"/>
<path d="M16.6733 7.96666C16.2465 7.96666 15.9035 8.30833 15.9035 8.73333C15.9035 9.15833 16.2465 9.49999 16.6733 9.49999C17.1 9.49999 17.4431 9.15833 17.4431 8.73333C17.4431 8.30833 17.1 7.96666 16.6733 7.96666Z" fill="#111111"/>
<path d="M19.4178 15.2167C19.4178 17.2333 17.761 18.8833 15.7194 18.8833H10.2806C8.23898 18.8833 6.58225 17.2333 6.58225 15.225V9.76667C6.58225 7.75 8.23898 6.1 10.2806 6.1H15.7194C17.761 6.1 19.4178 7.75 19.4178 9.76667V15.2167ZM13 0.125C6.13878 0.125 0.574493 5.66667 0.574493 12.5C0.574493 19.3333 6.13878 24.875 13 24.875C19.8612 24.875 25.4255 19.3333 25.4255 12.5C25.4255 5.66667 19.8612 0.125 13 0.125Z" fill="#111111"/>
</svg>
