 <svg display="none" xmlns="http://www.w3.org/2000/svg">
  <symbol id="vk" viewBox="0 0 25 25">
    <path d="M18.4416 15.1C17.0694 13.8333 17.2535 14.0333 18.9102 11.8417C19.9143 10.5083 20.3159 9.69167 20.1904 9.34167C20.0733 9.00833 19.3286 9.1 19.3286 9.1L16.8686 9.11667C16.8686 9.11667 16.6845 9.09167 16.5506 9.175C16.4167 9.25 16.3331 9.44167 16.3331 9.44167C16.3331 9.44167 15.9482 10.475 15.4294 11.35C14.3333 13.2 13.8982 13.3 13.7141 13.1833C13.2957 12.9167 13.4045 12.1083 13.4045 11.5333C13.4045 9.73333 13.6806 8.99167 12.869 8.79167C12.6012 8.725 12.4004 8.68333 11.7226 8.675C10.8441 8.66667 10.0994 8.675 9.68102 8.88333C9.40489 9.025 9.18734 9.325 9.31285 9.34167C9.47183 9.36667 9.84836 9.44167 10.0408 9.70833C10.2918 10.05 10.2835 10.8167 10.2835 10.8167C10.2835 10.8167 10.4341 12.925 9.94877 13.1917C9.61408 13.375 9.16224 13.0083 8.18326 11.325C7.68122 10.4667 7.30469 9.51667 7.30469 9.51667C7.30469 9.51667 7.22938 9.34167 7.10387 9.24167C6.94489 9.125 6.72734 9.08333 6.72734 9.08333L4.39285 9.09167C4.39285 9.09167 4.04142 9.09167 3.91591 9.24167C3.79877 9.375 3.90754 9.63333 3.90754 9.63333C3.90754 9.63333 5.73999 13.85 7.80673 16C9.70612 17.9667 11.8649 17.75 11.8649 17.75H12.8439C12.8439 17.75 13.1367 17.8083 13.2873 17.65C13.4296 17.5 13.4212 17.3167 13.4212 17.3167C13.4212 17.3167 13.4045 16.0083 14.0153 15.8167C14.6178 15.625 15.3875 17.0833 16.2075 17.6333C16.8267 18.0583 17.2953 17.9667 17.2953 17.9667L19.4792 17.9333C19.4792 17.9333 20.6255 17.8667 20.0816 16.9667C20.0231 16.9 19.7469 16.3167 18.4416 15.1ZM24.9765 12.5C24.9765 19.3333 19.4122 24.875 12.551 24.875C5.68979 24.875 0.125504 19.3333 0.125504 12.5C0.125504 5.66667 5.68979 0.125 12.551 0.125C19.4122 0.125 24.9765 5.66667 24.9765 12.5Z"/>
  </symbol>
  <symbol id="ig" viewBox="0 0 26 25">
    <path d="M13 14.675C11.7951 14.675 10.8161 13.7 10.8161 12.5C10.8161 11.3 11.7867 10.325 13 10.325C14.1965 10.325 15.1839 11.3 15.1839 12.5C15.1839 13.7 14.2049 14.675 13 14.675ZM13 9.175C11.1592 9.175 9.6698 10.6583 9.6698 12.5C9.6698 14.3333 11.1676 15.825 13 15.825C14.8408 15.825 16.3386 14.3333 16.3386 12.5C16.3386 10.6667 14.8408 9.175 13 9.175Z"/>
    <path d="M16.6733 7.96666C16.2465 7.96666 15.9035 8.30833 15.9035 8.73333C15.9035 9.15833 16.2465 9.49999 16.6733 9.49999C17.1 9.49999 17.4431 9.15833 17.4431 8.73333C17.4431 8.30833 17.1 7.96666 16.6733 7.96666Z"/>
    <path d="M19.4178 15.2167C19.4178 17.2333 17.761 18.8833 15.7194 18.8833H10.2806C8.23898 18.8833 6.58225 17.2333 6.58225 15.225V9.76667C6.58225 7.75 8.23898 6.1 10.2806 6.1H15.7194C17.761 6.1 19.4178 7.75 19.4178 9.76667V15.2167ZM13 0.125C6.13878 0.125 0.574493 5.66667 0.574493 12.5C0.574493 19.3333 6.13878 24.875 13 24.875C19.8612 24.875 25.4255 19.3333 25.4255 12.5C25.4255 5.66667 19.8612 0.125 13 0.125Z"/>
  </symbol>
  <symbol id="tg" viewBox="0 0 26 25">
    <path d="M20.5194 5.79167L17.7163 18.9167C17.6745 19.1667 17.3816 19.2917 17.1306 19.1667L12.8214 16.2917L10.5204 18.4583C10.3112 18.625 10.0184 18.5417 9.9347 18.2917L8.42858 13.625L4.45409 12C4.16123 11.875 4.16123 11.375 4.45409 11.25L19.9755 5.375C20.2684 5.29167 20.5612 5.5 20.5194 5.79167ZM13.449 0C6.50409 0 0.897964 5.58333 0.897964 12.5C0.897964 19.4167 6.50409 25 13.449 25C20.3939 25 26 19.4167 26 12.5C26 5.58333 20.3939 0 13.449 0Z"/>
    <path d="M10.3949 16.9167L10.6459 14.5L17.6745 7.70833L9.22346 13.25"/>
  </symbol>
</svg>