<svg width="26" height="25" viewBox="0 0 26 25" fill="none" xmlns="http://www.w3.org/2000/svg">
<path d="M20.5194 5.79167L17.7163 18.9167C17.6745 19.1667 17.3816 19.2917 17.1306 19.1667L12.8214 16.2917L10.5204 18.4583C10.3112 18.625 10.0184 18.5417 9.9347 18.2917L8.42858 13.625L4.45409 12C4.16123 11.875 4.16123 11.375 4.45409 11.25L19.9755 5.375C20.2684 5.29167 20.5612 5.5 20.5194 5.79167ZM13.449 0C6.50409 0 0.897964 5.58333 0.897964 12.5C0.897964 19.4167 6.50409 25 13.449 25C20.3939 25 26 19.4167 26 12.5C26 5.58333 20.3939 0 13.449 0Z" fill="#111111"/>
<path d="M10.3949 16.9167L10.6459 14.5L17.6745 7.70833L9.22346 13.25" fill="#111111"/>
</svg>
