<svg width="25" height="25" viewBox="0 0 25 25" fill="none" xmlns="http://www.w3.org/2000/svg">
<path d="M18.4416 15.1C17.0694 13.8333 17.2535 14.0333 18.9102 11.8417C19.9143 10.5083 20.3159 9.69167 20.1904 9.34167C20.0733 9.00833 19.3286 9.1 19.3286 9.1L16.8686 9.11667C16.8686 9.11667 16.6845 9.09167 16.5506 9.175C16.4167 9.25 16.3331 9.44167 16.3331 9.44167C16.3331 9.44167 15.9482 10.475 15.4294 11.35C14.3333 13.2 13.8982 13.3 13.7141 13.1833C13.2957 12.9167 13.4045 12.1083 13.4045 11.5333C13.4045 9.73333 13.6806 8.99167 12.869 8.79167C12.6012 8.725 12.4004 8.68333 11.7226 8.675C10.8441 8.66667 10.0994 8.675 9.68102 8.88333C9.40489 9.025 9.18734 9.325 9.31285 9.34167C9.47183 9.36667 9.84836 9.44167 10.0408 9.70833C10.2918 10.05 10.2835 10.8167 10.2835 10.8167C10.2835 10.8167 10.4341 12.925 9.94877 13.1917C9.61408 13.375 9.16224 13.0083 8.18326 11.325C7.68122 10.4667 7.30469 9.51667 7.30469 9.51667C7.30469 9.51667 7.22938 9.34167 7.10387 9.24167C6.94489 9.125 6.72734 9.08333 6.72734 9.08333L4.39285 9.09167C4.39285 9.09167 4.04142 9.09167 3.91591 9.24167C3.79877 9.375 3.90754 9.63333 3.90754 9.63333C3.90754 9.63333 5.73999 13.85 7.80673 16C9.70612 17.9667 11.8649 17.75 11.8649 17.75H12.8439C12.8439 17.75 13.1367 17.8083 13.2873 17.65C13.4296 17.5 13.4212 17.3167 13.4212 17.3167C13.4212 17.3167 13.4045 16.0083 14.0153 15.8167C14.6178 15.625 15.3875 17.0833 16.2075 17.6333C16.8267 18.0583 17.2953 17.9667 17.2953 17.9667L19.4792 17.9333C19.4792 17.9333 20.6255 17.8667 20.0816 16.9667C20.0231 16.9 19.7469 16.3167 18.4416 15.1ZM24.9765 12.5C24.9765 19.3333 19.4122 24.875 12.551 24.875C5.68979 24.875 0.125504 19.3333 0.125504 12.5C0.125504 5.66667 5.68979 0.125 12.551 0.125C19.4122 0.125 24.9765 5.66667 24.9765 12.5Z" fill="#111111"/>
</svg>
