<svg width="500" height="296" viewBox="0 0 500 296" fill="none" xmlns="http://www.w3.org/2000/svg">
<g clip-path="url(#clip0)">
<path d="M5.16895 163.195L123.195 167.853V187.304L30.1363 179.907L30.6961 211.693L50.7185 209.494L50.1773 225.126H30.6961L31.5171 295.833L12.2971 291.716L5.16895 163.195Z" fill="white"/>
<path d="M81.9928 274.835V259.148L137.078 257.117L135.492 202.377L60.1604 207.165L61.5786 292.647H145.064L149.281 273.233L81.9928 274.835ZM81.1904 220.356H118.716L120.041 237.125H81.1904V220.356Z" fill="white"/>
<path d="M221.814 212.569L219.761 195.781L158.668 200.495L156.895 256.483L209.125 252.347L210.021 274.146H167.83L163.687 291.25H233.327L225.061 232.02L176.395 235.225L177.272 213.165L221.814 212.569Z" fill="white"/>
<path d="M137.022 190.415L138.048 167.517L295.932 165.654L298.246 179.609L257.809 179.348L265.796 291.25H253.947L237.973 179.684L137.022 190.415Z" fill="white"/>
<path d="M68.8748 15.0544L108.024 16.3027V119.69L170.218 102.623L171.954 147.432H76.3202L68.8748 15.0544Z" fill="white"/>
<path d="M207.371 50.9203L118.194 47.194L122.952 103.089L145.848 99.2508L143.385 85.9851L185.09 82.5755L185.333 145.588H229.408L207.371 50.9203ZM141.239 72.7566L137.619 60.0498L181.004 63.6643L183.43 72.7566H141.239Z" fill="white"/>
<path d="M149.058 38.6048L154.376 15.0544L319.556 8.19794L321.683 28.9722L245.736 36.8907L268.912 148.513L240.81 148.382L223.605 39.201L149.058 38.6048Z" fill="white"/>
<path d="M344.393 151.289L329.726 9.22266L368.595 16.1164L394.141 111.827L385.37 15.9301L413.379 14.2159L415.096 144.19L376.413 142.383L359.825 72.0672L363.65 147.283L344.393 151.289Z" fill="white"/>
<path d="M491.864 0L423.586 14.4395L428.625 141.936L500.093 133.254L491.864 0ZM451.26 113.653L444.71 38.0831L476.04 39.4059V102.642L451.26 113.653Z" fill="white"/>
<path d="M63.5753 90.2144L58.5744 10.5082L0 15.0544L7.93058 145.327H36.0328L27.9903 95.5245L63.5753 90.2144ZM21.0487 41.1759H39.0745L41.4816 71.4524L25.2472 71.0611L21.0487 41.1759Z" fill="white"/>
<path d="M320.34 41.9957L264.527 52.3363L279.548 144.451L295.167 144.321L287.367 102.008L308.21 103.983L310.674 153.394H328.625L320.34 41.9957ZM285.632 87.3079L283.075 64.3351L303.415 60.4038L307.24 88.7425L285.632 87.3079Z" fill="white"/>
<path d="M125.023 9.33447L144.691 14.365L137.656 37.5614L118.362 37.7664L125.023 9.33447Z" fill="white"/>
<path d="M340.399 204.24V183.447H347.994V186.466H343.534V191.496H345.4C347.565 191.496 348.628 192.782 348.628 195.334V200.607C348.705 201.587 348.434 202.563 347.863 203.364C347.539 203.677 347.151 203.916 346.726 204.067C346.302 204.218 345.85 204.277 345.4 204.24H340.399ZM343.534 201.222H344.337C344.498 201.245 344.663 201.224 344.814 201.162C344.965 201.099 345.097 200.998 345.195 200.868C345.364 200.54 345.441 200.173 345.419 199.806V196.079C345.447 195.689 345.377 195.299 345.214 194.943C345.116 194.806 344.982 194.699 344.828 194.633C344.673 194.568 344.503 194.546 344.337 194.57H343.534V201.222Z" fill="white"/>
<path d="M350.159 200.607V192.875C350.082 191.828 350.417 190.792 351.092 189.987C351.433 189.641 351.844 189.372 352.298 189.199C352.752 189.025 353.238 188.951 353.723 188.981H354.264C354.747 188.952 355.231 189.025 355.685 189.195C356.138 189.365 356.55 189.629 356.895 189.968C357.227 190.35 357.481 190.793 357.641 191.273C357.801 191.752 357.865 192.259 357.828 192.763V200.607C357.85 201.604 357.513 202.577 356.876 203.346C356.559 203.726 356.158 204.027 355.705 204.228C355.252 204.428 354.759 204.522 354.264 204.501H353.723C353.218 204.541 352.711 204.46 352.244 204.266C351.777 204.071 351.363 203.769 351.036 203.383C350.432 202.586 350.122 201.606 350.159 200.607ZM353.163 192.893V200.477C353.163 201.259 353.443 201.65 354.003 201.65C354.544 201.65 354.824 201.259 354.824 200.477V192.893C354.824 192.13 354.544 191.757 354.003 191.757C353.462 191.757 353.163 192.13 353.163 192.893Z" fill="white"/>
<path d="M360.142 200.141C360.235 199.154 360.291 195.502 360.291 189.204H367.382V204.24H364.396V192.055H363.127C363.127 196.638 363.127 199.694 362.866 201.222C362.868 202.074 362.608 202.907 362.12 203.607C361.843 203.847 361.52 204.027 361.169 204.137C360.819 204.246 360.45 204.281 360.086 204.24H358.892V201.389H359.227C359.348 201.401 359.47 201.381 359.581 201.332C359.692 201.284 359.789 201.207 359.862 201.11C360.029 200.813 360.124 200.481 360.142 200.141Z" fill="white"/>
<path d="M369.08 204.24V189.204H372.047V194.235H373.204C374.163 194.124 375.131 194.362 375.928 194.906C376.459 195.624 376.699 196.515 376.6 197.402V200.98C376.696 201.884 376.457 202.792 375.928 203.532C375.141 204.1 374.169 204.353 373.204 204.24H369.08ZM372.047 201.669H372.756C372.875 201.682 372.996 201.667 373.108 201.626C373.221 201.585 373.322 201.519 373.405 201.432C373.488 201.346 373.55 201.242 373.586 201.128C373.623 201.014 373.632 200.893 373.614 200.775V197.645C373.627 197.528 373.615 197.409 373.58 197.297C373.544 197.185 373.486 197.081 373.409 196.992C373.224 196.849 372.99 196.782 372.756 196.806H372.047V201.669Z" fill="white"/>
<path d="M378.056 204.24V189.204H381.041V201.389H382.534V189.204H385.52V201.389H386.957V189.204H389.942V204.24H378.056Z" fill="white"/>
<path d="M391.566 200.607V192.875C391.494 191.831 391.82 190.8 392.48 189.987C392.823 189.644 393.235 189.377 393.688 189.204C394.141 189.03 394.626 188.954 395.111 188.981H395.671C396.154 188.952 396.638 189.025 397.092 189.195C397.545 189.365 397.957 189.629 398.302 189.968C398.964 190.744 399.298 191.746 399.235 192.763V200.607C399.257 201.604 398.92 202.577 398.283 203.346C397.965 203.725 397.564 204.026 397.111 204.226C396.658 204.426 396.166 204.52 395.671 204.501H395.111C394.609 204.539 394.106 204.458 393.642 204.264C393.178 204.069 392.767 203.767 392.443 203.383C391.83 202.59 391.52 201.607 391.566 200.607ZM394.57 192.893V200.477C394.57 201.259 394.831 201.65 395.391 201.65C395.951 201.65 396.231 201.259 396.231 200.477V192.893C396.231 192.13 395.951 191.757 395.391 191.757C394.831 191.757 394.57 192.13 394.57 192.893Z" fill="white"/>
<path d="M408.77 204.24H405.934V195.893L403.9 204.24H400.784V189.204H403.639V198.073L405.654 189.204H408.77V204.24ZM404.926 188.459C404.55 188.481 404.173 188.427 403.818 188.303C403.462 188.178 403.135 187.984 402.855 187.733C402.586 187.445 402.381 187.103 402.252 186.731C402.123 186.359 402.075 185.964 402.109 185.571V185.459H404.273V185.571C404.273 186.205 404.497 186.521 404.945 186.521C405.393 186.521 405.598 186.205 405.598 185.571V185.459H407.688V185.571C407.719 185.963 407.668 186.358 407.54 186.729C407.411 187.101 407.208 187.443 406.942 187.733C406.672 187.983 406.355 188.177 406.008 188.302C405.662 188.427 405.294 188.48 404.926 188.459Z" fill="white"/>
<path d="M422 204.501H421.291V209.494H418.324V204.501H417.634C417.113 204.544 416.588 204.465 416.103 204.271C415.617 204.077 415.183 203.773 414.835 203.383C414.203 202.599 413.879 201.612 413.921 200.607V192.875C413.857 191.823 414.204 190.787 414.891 189.987C415.257 189.644 415.688 189.378 416.16 189.205C416.631 189.032 417.132 188.956 417.634 188.981H418.324V183.391H421.291V188.981H422C422.498 188.956 422.995 189.03 423.463 189.2C423.93 189.369 424.36 189.631 424.725 189.968C425.069 190.343 425.333 190.785 425.5 191.265C425.667 191.746 425.733 192.256 425.695 192.763V200.607C425.714 201.61 425.362 202.585 424.706 203.346C424.371 203.729 423.954 204.031 423.485 204.231C423.017 204.431 422.509 204.523 422 204.501ZM417.895 201.65H418.324V191.757H417.989C417.354 191.757 417.018 192.13 417.018 192.893V200.477C416.925 201.222 417.261 201.65 417.989 201.65H417.895ZM421.721 191.757H421.291V201.65H421.721C422.374 201.65 422.691 201.259 422.691 200.477V192.893C422.691 192.13 422.374 191.757 421.721 191.757Z" fill="white"/>
<path d="M430.677 189.018H431.237C433.458 189.018 434.577 190.266 434.577 192.744V197.067H430.155V200.532C430.155 201.278 430.416 201.65 430.957 201.65C431.498 201.65 431.704 201.296 431.704 200.57V198.073H434.577V200.7C434.577 203.234 433.42 204.426 431.088 204.426H430.565C430.116 204.452 429.667 204.381 429.248 204.217C428.83 204.053 428.451 203.8 428.14 203.476C427.51 202.679 427.204 201.675 427.281 200.663V192.521C427.234 191.578 427.532 190.651 428.121 189.912C428.452 189.581 428.854 189.328 429.297 189.173C429.739 189.019 430.211 188.965 430.677 189.018ZM430.155 192.744V194.608H431.797V192.744C431.797 191.943 431.517 191.552 430.976 191.552C430.775 191.539 430.577 191.599 430.416 191.72C430.301 191.822 430.222 191.96 430.192 192.111C430.159 192.314 430.147 192.52 430.155 192.726V192.744Z" fill="white"/>
<path d="M440.605 197.495H443.478V200.868C443.493 201.78 443.205 202.671 442.657 203.402C442.347 203.77 441.953 204.06 441.509 204.248C441.065 204.436 440.582 204.516 440.101 204.482H439.56C439.081 204.513 438.602 204.437 438.156 204.26C437.711 204.083 437.311 203.809 436.985 203.458C436.37 202.732 436.056 201.799 436.108 200.849V192.651C436.108 190.192 437.283 188.925 439.653 188.925H440.194C440.64 188.863 441.094 188.905 441.521 189.048C441.947 189.191 442.335 189.431 442.653 189.749C442.972 190.066 443.212 190.453 443.355 190.88C443.498 191.306 443.54 191.759 443.478 192.204V194.887H440.605V192.838C440.625 192.509 440.581 192.18 440.474 191.869C440.397 191.781 440.302 191.712 440.196 191.664C440.09 191.616 439.975 191.591 439.858 191.591C439.742 191.591 439.627 191.616 439.52 191.664C439.414 191.712 439.32 191.781 439.242 191.869C439.137 192.174 439.093 192.497 439.112 192.819V200.495C439.112 201.259 439.354 201.65 439.821 201.65C440.287 201.65 440.605 201.278 440.605 200.532V197.495Z" fill="white"/>
<path d="M446.707 204.24V192.055H444.617V189.204H451.763V192.055H449.711V204.24H446.707Z" fill="white"/>
<path d="M461.094 204.24H458.239V195.893L456.223 204.24H453.107V189.204H455.943V198.073L457.977 189.204H461.094V204.24Z" fill="white"/>
<path d="M467.009 204.24H462.773V189.204H466.729C467.709 189.106 468.696 189.3 469.565 189.763C469.84 190.069 470.046 190.43 470.169 190.822C470.291 191.215 470.327 191.629 470.274 192.036V193.769C470.315 194.352 470.185 194.935 469.901 195.446C469.64 195.814 469.267 196.088 468.837 196.229C469.298 196.358 469.708 196.624 470.013 196.992C470.329 197.56 470.465 198.209 470.405 198.856V201.091C470.495 201.998 470.249 202.906 469.714 203.644C468.923 204.182 467.954 204.395 467.009 204.24ZM465.758 195.055H466.505C466.99 195.055 467.233 194.719 467.233 194.049V192.614C467.233 192.055 466.99 191.776 466.505 191.776H465.702L465.758 195.055ZM465.758 201.669H466.505C467.083 201.669 467.363 201.334 467.363 200.644V198.595C467.363 197.943 467.083 197.626 466.505 197.626H465.702L465.758 201.669Z" fill="white"/>
<path d="M471.935 201.986V198.464C471.906 197.829 472.008 197.195 472.234 196.601C472.482 196.107 472.871 195.699 473.353 195.427L474.193 194.943L475.275 194.403L475.947 194.086C476.061 194.017 476.162 193.929 476.246 193.825C476.276 193.696 476.276 193.562 476.246 193.434V192.484C476.273 192.218 476.214 191.95 476.078 191.72C476.007 191.644 475.92 191.585 475.823 191.55C475.725 191.514 475.621 191.502 475.518 191.515C475.412 191.501 475.304 191.512 475.204 191.547C475.103 191.583 475.013 191.642 474.939 191.72C474.804 191.944 474.745 192.205 474.771 192.465V194.049H472.103V191.906C472.103 190.006 473.148 189.055 475.238 189.055H475.798C476.274 188.995 476.757 189.036 477.217 189.174C477.677 189.312 478.102 189.544 478.466 189.857C478.964 190.464 479.217 191.234 479.175 192.018V200.961C479.134 201.082 479.134 201.213 479.175 201.334C479.175 201.334 479.362 201.445 479.567 201.445H480.09V204.203H477.328C476.675 204.203 476.358 203.644 476.358 202.507C476.167 203.016 475.836 203.461 475.404 203.79C474.971 204.12 474.455 204.321 473.913 204.371H473.82C473.552 204.374 473.287 204.311 473.05 204.188C472.812 204.064 472.608 203.884 472.458 203.663C472.095 203.181 471.91 202.588 471.935 201.986ZM476.302 200.532V196.638C475.917 196.848 475.559 197.104 475.238 197.402C475.099 197.566 474.994 197.756 474.93 197.961C474.866 198.166 474.844 198.381 474.865 198.595V200.663C474.865 201.315 475.089 201.65 475.555 201.65C476.022 201.65 476.302 201.222 476.302 200.532Z" fill="white"/>
<path d="M481.974 200.141C481.974 199.154 482.124 195.502 482.124 189.204H489.214V204.24H486.229V192.055H484.96C484.96 196.638 484.867 199.694 484.699 201.222C484.701 202.074 484.44 202.907 483.952 203.607C483.676 203.847 483.352 204.027 483.002 204.137C482.652 204.246 482.283 204.281 481.918 204.24H480.724V201.389H481.06C481.181 201.401 481.303 201.381 481.414 201.332C481.525 201.284 481.621 201.207 481.694 201.11C481.861 200.813 481.957 200.481 481.974 200.141Z" fill="white"/>
<path d="M490.912 204.24V189.204H493.879V194.235H495.036C495.99 194.123 496.952 194.362 497.742 194.906C498.273 195.624 498.513 196.515 498.414 197.402V200.98C498.509 201.884 498.27 202.792 497.742 203.532C496.962 204.101 495.995 204.354 495.036 204.24H490.912ZM493.879 201.669H494.589C494.708 201.682 494.828 201.667 494.941 201.626C495.053 201.585 495.155 201.519 495.238 201.432C495.321 201.346 495.383 201.242 495.419 201.128C495.455 201.014 495.465 200.893 495.447 200.775V197.645C495.459 197.528 495.448 197.409 495.412 197.297C495.377 197.185 495.319 197.081 495.242 196.992C495.151 196.92 495.046 196.866 494.934 196.834C494.822 196.802 494.704 196.792 494.589 196.806H493.879V201.669Z" fill="white"/>
<path d="M347.901 226.3V234.144C347.923 235.141 347.585 236.114 346.949 236.883C346.631 237.262 346.23 237.562 345.777 237.763C345.324 237.963 344.832 238.057 344.337 238.038H343.777C343.275 238.076 342.772 237.995 342.308 237.801C341.844 237.606 341.433 237.304 341.108 236.92C340.496 236.127 340.186 235.144 340.231 234.144V222.518C340.13 221.19 340.422 219.862 341.071 218.698C341.48 218.253 341.99 217.914 342.559 217.709C343.128 217.505 343.738 217.441 344.337 217.525H344.598C344.768 217.542 344.938 217.503 345.083 217.413C345.083 217.413 345.195 217.208 345.195 216.984H348.069C348.158 217.888 347.969 218.798 347.528 219.593C347.222 219.867 346.86 220.072 346.466 220.191C346.073 220.31 345.658 220.341 345.251 220.282H345.008C344.418 220.208 343.821 220.369 343.348 220.729C343.009 221.288 342.87 221.945 342.956 222.592V224.455C343.233 223.939 343.633 223.498 344.121 223.173C344.61 222.848 345.171 222.649 345.755 222.592H345.904C346.227 222.572 346.548 222.65 346.825 222.816C347.101 222.983 347.321 223.23 347.453 223.524C347.793 224.408 347.945 225.354 347.901 226.3ZM344.057 235.187C344.617 235.187 344.897 234.796 344.897 234.014V226.43C344.897 225.667 344.617 225.294 344.057 225.294C343.497 225.294 343.236 225.667 343.236 226.43V234.014C343.236 234.759 343.516 235.187 344.057 235.187Z" fill="white"/>
<path d="M349.431 235.523V232.001C349.407 231.365 349.515 230.731 349.748 230.138C349.983 229.642 350.368 229.231 350.849 228.964L351.689 228.48C352.043 228.294 352.398 228.107 352.771 227.94L353.443 227.623C353.557 227.554 353.658 227.466 353.741 227.362C353.772 227.233 353.772 227.099 353.741 226.971V226.021C353.769 225.755 353.71 225.487 353.573 225.257C353.503 225.181 353.416 225.122 353.318 225.087C353.221 225.051 353.116 225.039 353.014 225.052C352.905 225.038 352.794 225.049 352.691 225.084C352.587 225.12 352.493 225.179 352.416 225.257C352.281 225.48 352.222 225.742 352.248 226.002V227.586H349.58V225.443C349.58 223.58 350.625 222.592 352.734 222.592H353.275C353.754 222.532 354.24 222.572 354.703 222.71C355.166 222.848 355.594 223.081 355.962 223.394C356.447 224.007 356.692 224.775 356.652 225.555V234.498C356.611 234.619 356.611 234.75 356.652 234.871C356.652 234.871 356.839 234.982 357.044 234.982H357.567V237.74H354.73C354.096 237.74 353.76 237.181 353.76 236.044C353.571 236.554 353.241 237 352.808 237.33C352.376 237.66 351.858 237.86 351.315 237.908C351.048 237.911 350.783 237.848 350.545 237.725C350.308 237.601 350.104 237.421 349.953 237.2C349.59 236.718 349.406 236.125 349.431 235.523ZM353.797 234.069V230.175C353.414 230.379 353.063 230.636 352.752 230.939C352.611 231.102 352.503 231.291 352.436 231.496C352.369 231.701 352.343 231.917 352.36 232.132V234.2C352.36 234.852 352.584 235.187 353.051 235.187C353.517 235.187 353.797 234.759 353.797 234.069Z" fill="white"/>
<path d="M361.709 237.777H358.724V222.741H361.709V228.871H363.426V222.741H366.412V237.777H363.426V231.722H361.709V237.777Z" fill="white"/>
<path d="M368.016 235.523V232.001C367.993 231.365 368.1 230.731 368.334 230.138C368.569 229.642 368.954 229.231 369.435 228.964L370.274 228.48L371.357 227.94L372.028 227.623C372.143 227.554 372.244 227.466 372.327 227.362C372.358 227.233 372.358 227.099 372.327 226.971V226.021C372.354 225.755 372.296 225.487 372.159 225.257C372.089 225.181 372.001 225.122 371.904 225.087C371.807 225.051 371.702 225.039 371.599 225.052C371.491 225.038 371.38 225.049 371.277 225.084C371.173 225.12 371.079 225.179 371.002 225.257C370.867 225.48 370.808 225.742 370.834 226.002V227.586H368.166V225.443C368.166 223.58 369.211 222.592 371.319 222.592H371.86C372.34 222.532 372.826 222.572 373.289 222.71C373.751 222.848 374.18 223.081 374.548 223.394C375.032 224.007 375.278 224.775 375.238 225.555V234.498C375.197 234.619 375.197 234.75 375.238 234.871C375.238 234.871 375.425 234.982 375.63 234.982H376.152V237.74H373.316C372.682 237.74 372.346 237.181 372.346 236.044C372.157 236.554 371.827 237 371.394 237.33C370.961 237.66 370.444 237.86 369.901 237.908H369.808C369.54 237.911 369.275 237.848 369.038 237.725C368.8 237.601 368.597 237.421 368.446 237.2C368.116 236.706 367.964 236.114 368.016 235.523ZM372.383 234.069V230.175C372 230.379 371.648 230.636 371.338 230.939C371.197 231.102 371.089 231.291 371.022 231.496C370.954 231.701 370.929 231.917 370.946 232.132V234.2C370.946 234.852 371.17 235.187 371.637 235.187C372.103 235.187 372.383 234.759 372.383 234.069Z" fill="white"/>
<path d="M380.295 237.777H377.309V222.741H380.295V228.871H382.012V222.741H384.997V237.777H382.012V231.722H380.295V237.777Z" fill="white"/>
<path d="M386.658 234.144V226.412C386.591 225.366 386.925 224.334 387.591 223.524C387.932 223.178 388.343 222.909 388.797 222.736C389.251 222.562 389.737 222.488 390.222 222.518H390.782C391.265 222.492 391.748 222.567 392.201 222.737C392.654 222.907 393.066 223.168 393.413 223.505C394.075 224.281 394.409 225.283 394.346 226.3V234.144C394.361 235.143 394.017 236.115 393.376 236.883C393.061 237.261 392.663 237.562 392.214 237.762C391.764 237.963 391.274 238.057 390.782 238.038H390.222C389.717 238.078 389.211 237.997 388.743 237.803C388.276 237.608 387.862 237.306 387.535 236.92C386.931 236.123 386.622 235.143 386.658 234.144ZM389.662 226.43V234.014C389.662 234.796 389.942 235.187 390.502 235.187C391.062 235.187 391.342 234.796 391.342 234.014V226.43C391.342 225.667 391.062 225.294 390.502 225.294C389.942 225.294 389.662 225.667 389.662 226.43Z" fill="white"/>
<path d="M400.131 237.777H395.895V222.741H399.851C400.825 222.642 401.806 222.836 402.668 223.3C402.948 223.603 403.157 223.964 403.279 224.357C403.402 224.75 403.436 225.166 403.377 225.573V227.306C403.423 227.887 403.3 228.47 403.023 228.983C402.762 229.351 402.389 229.625 401.959 229.765C402.42 229.895 402.83 230.161 403.135 230.529C403.45 231.097 403.587 231.746 403.527 232.393V234.628C403.617 235.535 403.371 236.443 402.836 237.181C402.041 237.71 401.075 237.923 400.131 237.777ZM398.88 228.592H399.683C400.168 228.592 400.411 228.256 400.411 227.586V226.151C400.411 225.592 400.168 225.313 399.683 225.313H398.88V228.592ZM398.88 235.206H399.683C400.261 235.206 400.541 234.871 400.541 234.181V232.132C400.541 231.48 400.261 231.163 399.683 231.163H398.88V235.206Z" fill="white"/>
<path d="M416.645 237.777H413.808V229.43L411.775 237.777H408.658V222.741H411.495V231.61L413.529 222.741H416.645V237.777Z" fill="white"/>
<path d="M426.274 237.777L424.669 228.871V237.777H421.888V222.741H425.62L427.151 231.163L428.681 222.741H432.245V237.777H429.259V228.834L427.654 237.777H426.274Z" fill="white"/>
<path d="M435.772 237.33L433.42 222.741H436.331L437.488 231.945L438.608 222.741H441.444L438.515 240.795C438.446 241.404 438.228 241.986 437.88 242.491C437.734 242.669 437.549 242.811 437.338 242.905C437.127 242.999 436.898 243.042 436.667 243.031H433.868V240.181H435.137C435.224 240.192 435.312 240.184 435.396 240.158C435.479 240.133 435.557 240.089 435.622 240.032C435.721 239.846 435.784 239.644 435.809 239.435L435.902 238.783C435.931 238.295 435.887 237.805 435.772 237.33Z" fill="white"/>
<path d="M449.711 232.281V234.144C449.711 236.696 448.572 237.982 446.259 237.982H445.624C445.147 238.021 444.667 237.945 444.225 237.76C443.784 237.576 443.393 237.287 443.086 236.92C442.53 236.202 442.24 235.313 442.265 234.405V231.89H445.12V234.069C445.12 234.815 445.4 235.187 445.96 235.187C446.52 235.187 446.781 234.833 446.744 234.125V232.113C446.744 231.442 446.445 231.107 445.867 231.107H444.449V228.424H445.979C446.086 228.436 446.195 228.422 446.295 228.383C446.396 228.344 446.486 228.281 446.557 228.2C446.684 227.881 446.735 227.537 446.706 227.194V226.43C446.723 226.101 446.672 225.771 446.557 225.462C446.496 225.366 446.409 225.29 446.307 225.241C446.205 225.191 446.092 225.171 445.979 225.182C445.494 225.182 445.232 225.592 445.232 226.43V227.641H442.377V226.207C442.301 225.229 442.565 224.256 443.124 223.449C443.449 223.113 443.846 222.854 444.285 222.692C444.725 222.531 445.195 222.471 445.662 222.518H445.979C446.482 222.462 446.991 222.513 447.474 222.667C447.956 222.821 448.4 223.075 448.778 223.412C449.38 224.214 449.665 225.209 449.58 226.207V227.306C449.621 227.889 449.491 228.472 449.207 228.983C448.953 229.35 448.586 229.625 448.162 229.765C448.615 229.9 449.017 230.166 449.319 230.529C449.613 231.064 449.749 231.672 449.711 232.281Z" fill="white"/>
<path d="M451.409 237.777V222.741H454.376V227.772H455.514C456.473 227.661 457.441 227.899 458.238 228.443C458.77 229.161 459.009 230.052 458.91 230.939V234.517C459.006 235.421 458.767 236.329 458.238 237.069C457.451 237.637 456.479 237.89 455.514 237.777H451.409ZM454.376 235.206H455.066C455.187 235.222 455.309 235.209 455.424 235.17C455.539 235.13 455.643 235.064 455.728 234.978C455.814 234.891 455.877 234.785 455.915 234.67C455.952 234.554 455.962 234.432 455.943 234.312V231.182C455.956 231.065 455.944 230.946 455.909 230.834C455.873 230.722 455.815 230.618 455.738 230.529C455.547 230.383 455.306 230.316 455.066 230.343H454.376V235.206ZM462.773 222.741V237.777H459.806V222.741H462.773Z" fill="white"/>
<path d="M469.789 237.777L467.401 231.07V237.777H464.415V222.741H467.401V228.443L469.715 222.741H472.681L469.882 229.43L472.887 237.777H469.789Z" fill="white"/>
<path d="M481.844 237.777H479.007V229.43L476.973 237.777H473.857V222.741H476.693V231.61L478.727 222.741H481.844V237.777Z" fill="white"/>
<path d="M344.542 271.314H340.306V256.278H344.262C345.236 256.179 346.218 256.373 347.08 256.837C347.355 257.143 347.561 257.504 347.683 257.896C347.806 258.289 347.842 258.703 347.789 259.11V260.843C347.834 261.424 347.711 262.007 347.434 262.52C347.173 262.888 346.8 263.162 346.371 263.302C346.831 263.432 347.241 263.698 347.546 264.066C347.862 264.634 347.998 265.283 347.938 265.93V268.165C348.028 269.072 347.782 269.98 347.248 270.718C346.452 271.247 345.487 271.46 344.542 271.314ZM343.292 262.129H344.094C344.579 262.129 344.822 261.793 344.822 261.123V259.688C344.822 259.129 344.579 258.849 344.094 258.849H343.348L343.292 262.129ZM343.292 268.743H344.094C344.673 268.743 344.952 268.408 344.952 267.718V265.669C344.952 265.017 344.673 264.7 344.094 264.7H343.348L343.292 268.743Z" fill="white"/>
<path d="M361.037 274.258V271.314H355.589V274.258H352.678V268.165H353.368C353.755 267.332 354.019 266.447 354.152 265.538C354.438 263.675 354.575 258.669 354.562 250.521H362.474V268.165H363.874V274.258H361.037ZM357.138 265.613C357.036 266.485 356.829 267.342 356.522 268.165H359.358V253.54H357.492C357.598 257.567 357.479 261.598 357.138 265.613Z" fill="white"/>
<path d="M376.936 259.837V267.681C376.96 268.682 376.615 269.657 375.966 270.42C375.651 270.798 375.253 271.099 374.804 271.299C374.354 271.5 373.864 271.594 373.372 271.575H372.812C372.308 271.613 371.801 271.532 371.334 271.338C370.867 271.143 370.453 270.842 370.125 270.457C369.521 269.66 369.212 268.68 369.248 267.681V265.259H368.259V271.314H365.273V256.278H368.259V262.408H369.248V259.949C369.181 258.903 369.515 257.871 370.181 257.061C370.522 256.715 370.933 256.446 371.387 256.273C371.841 256.099 372.327 256.025 372.812 256.055H373.372C373.855 256.026 374.339 256.099 374.793 256.269C375.246 256.439 375.658 256.703 376.003 257.042C376.665 257.818 376.999 258.82 376.936 259.837ZM372.252 259.967V267.551C372.252 268.333 372.532 268.724 373.092 268.724C373.652 268.724 373.932 268.333 373.932 267.551V259.967C373.932 259.203 373.652 258.831 373.092 258.831C372.532 258.831 372.215 259.203 372.215 259.967H372.252Z" fill="white"/>
<path d="M378.559 256.278H381.545V257.899C381.762 257.431 382.099 257.028 382.521 256.73C382.944 256.432 383.437 256.251 383.952 256.204C384.27 256.184 384.588 256.245 384.875 256.382C385.163 256.519 385.41 256.727 385.594 256.986C386.023 257.564 386.258 258.261 386.266 258.98V268.426C386.314 269.213 386.083 269.991 385.613 270.625C385.413 270.866 385.162 271.06 384.878 271.192C384.594 271.324 384.284 271.391 383.971 271.389C383.507 271.337 383.061 271.183 382.664 270.938C382.267 270.693 381.93 270.363 381.676 269.973V276.531H378.69L378.559 256.278ZM381.545 260.005V267.793C381.526 268.095 381.604 268.395 381.769 268.65C381.841 268.739 381.932 268.812 382.035 268.864C382.138 268.915 382.251 268.944 382.366 268.948C382.889 268.948 383.15 268.575 383.15 267.849V260.005C383.15 259.278 382.889 258.905 382.366 258.905C381.844 258.905 381.545 259.222 381.545 259.949V260.005Z" fill="white"/>
<path d="M392.275 264.569H395.148V267.942C395.163 268.854 394.875 269.745 394.327 270.476C394.017 270.844 393.623 271.134 393.179 271.322C392.735 271.51 392.252 271.59 391.771 271.556H391.23C390.751 271.587 390.272 271.511 389.826 271.334C389.381 271.157 388.981 270.883 388.655 270.532C388.04 269.806 387.726 268.873 387.778 267.923V259.725C387.778 257.266 388.953 255.999 391.342 255.999H391.864C392.31 255.937 392.764 255.979 393.191 256.122C393.618 256.265 394.005 256.505 394.324 256.822C394.642 257.14 394.882 257.527 395.025 257.953C395.168 258.38 395.21 258.833 395.148 259.278V261.961H392.275V259.912C392.296 259.583 392.251 259.254 392.144 258.943C392.067 258.855 391.972 258.786 391.866 258.738C391.76 258.69 391.645 258.665 391.528 258.665C391.412 258.665 391.297 258.69 391.19 258.738C391.084 258.786 390.99 258.855 390.913 258.943C390.807 259.248 390.763 259.571 390.782 259.893V267.569C390.782 268.333 391.024 268.724 391.491 268.724C391.957 268.724 392.275 268.352 392.275 267.606V264.569Z" fill="white"/>
<path d="M396.623 267.681V259.949C396.546 258.902 396.881 257.866 397.556 257.061C397.896 256.715 398.308 256.446 398.762 256.273C399.216 256.099 399.701 256.025 400.187 256.055H400.728C401.211 256.026 401.695 256.099 402.149 256.269C402.602 256.439 403.014 256.703 403.359 257.042C403.691 257.424 403.944 257.867 404.105 258.347C404.265 258.826 404.328 259.333 404.292 259.837V267.681C404.314 268.678 403.976 269.651 403.34 270.42C403.023 270.8 402.622 271.101 402.169 271.302C401.716 271.502 401.223 271.595 400.728 271.575H400.187C399.682 271.615 399.175 271.534 398.708 271.34C398.241 271.145 397.827 270.843 397.5 270.457C396.887 269.664 396.577 268.681 396.623 267.681ZM399.627 259.967V267.551C399.627 268.333 399.907 268.724 400.467 268.724C401.008 268.724 401.288 268.333 401.288 267.551V259.967C401.288 259.204 401.008 258.831 400.467 258.831C399.925 258.831 399.627 259.204 399.627 259.967Z" fill="white"/>
<path d="M317.522 290.486L315.04 290.896L313.174 166.586L317.522 166.008V290.486Z" fill="white"/>
</g>
<defs>
<clipPath id="clip0">
<rect width="500" height="295.833" fill="white"/>
</clipPath>
</defs>
</svg>
