<svg width="42" height="40" viewBox="0 0 42 40" fill="none" xmlns="http://www.w3.org/2000/svg">
<path d="M3.29723 14.0321C3.20939 14.9195 3.77089 29.9707 4.64294 30.648C5.59968 31.388 24.0789 36.8566 26.4598 36.3957C28.7591 35.9504 38.0191 27.8353 39.1107 25.5055C40.1302 23.3356 36.8867 7.61654 36.5322 7.11797C36.1213 6.53787 15.5247 2.00057 14.6119 2.66533C12.1087 4.48715 3.37565 13.2325 3.29723 14.0321Z" fill="white"/>
<path d="M0.649827 14.0321C0.364373 17.9548 0.885091 22.1347 1.22387 26.0417C1.38071 27.8667 1.33052 30.1432 2.23708 31.7894C2.98992 33.1565 4.63991 33.5485 6.01699 34.0157C10.647 35.5867 15.3899 36.9162 20.1454 38.0451C21.9836 38.4809 23.9096 38.9858 25.8074 39.0641C27.7428 39.1425 29.4022 37.9886 30.9016 36.8974C33.2762 35.1696 35.5316 33.2569 37.6459 31.2187C39.1139 29.8077 41.0682 28.1301 41.7018 26.1233C42.2602 24.3547 41.9026 22.2005 41.6862 20.4038C41.3568 17.6664 40.9082 14.9415 40.3938 12.2323C40.0581 10.4637 39.7664 8.63878 39.2488 6.91103C38.7532 5.25226 37.7212 4.63453 36.1622 4.17045C32.0215 2.94127 27.7272 2.10719 23.4955 1.26996C21.0802 0.790207 18.646 0.313586 16.1961 0.0439189C14.1508 -0.181849 12.9902 0.52054 11.4469 1.86261C9.18521 3.82867 7.04587 5.95465 4.95673 8.10258C3.62043 9.47287 1.21132 11.3731 0.743933 13.3297C-0.0434178 16.6379 5.05711 18.052 5.84446 14.7345C5.70016 15.346 5.59351 15.4275 5.7033 15.1045C5.74408 14.9885 6.02326 14.7753 5.73153 15.0481C5.43667 15.324 6.15501 14.5558 6.28048 14.4147C6.98314 13.6151 7.71716 12.8437 8.45746 12.0786C10.1482 10.332 11.8829 8.61996 13.6646 6.96747C14.3673 6.31525 15.0825 5.67871 15.8134 5.05785C16.2714 4.66903 15.6346 5.11429 15.4432 5.17073C14.8378 5.35574 14.8441 5.19268 15.4181 5.25853C15.6722 5.28675 15.9294 5.30557 16.1867 5.33065C16.9301 5.40277 15.8448 5.2648 16.6697 5.3965C17.592 5.54074 18.5142 5.69439 19.4333 5.86371C23.7057 6.64136 27.9593 7.55384 32.1752 8.59488C32.8747 8.76734 33.5742 8.94294 34.2675 9.13735C34.5404 9.21261 34.8102 9.3004 35.0862 9.37566C35.5285 9.49481 35.723 9.7488 35.0768 9.3349C35.5599 9.64846 34.0291 8.13394 34.2581 8.48827C33.6809 7.58833 34.0573 7.86427 34.0793 8.11199C34.0981 8.31267 34.1953 8.5353 34.2455 8.73285C34.44 9.50109 34.6031 10.2756 34.7663 11.0532C35.6508 15.2707 36.5731 19.4286 36.6546 23.6241C36.6609 23.9534 36.6295 24.2826 36.639 24.6119C36.6515 25.1637 36.7738 24.1509 36.6672 24.4363C36.6452 24.4958 36.5825 24.6683 36.5919 24.7247C36.4664 23.969 36.9683 24.3704 36.5919 24.5836C36.5386 24.615 36.3943 24.8658 36.3755 24.8941C36.6829 24.4582 35.8642 25.4742 35.6791 25.6749C33.9664 27.5468 32.056 29.2495 30.1018 30.8644C29.3301 31.5009 28.5459 32.1186 27.7272 32.6925C27.3601 32.9496 26.9869 33.2005 26.601 33.4325C26.4097 33.5485 26.2121 33.652 26.0176 33.7649C25.7102 33.9436 25.4718 33.79 26.005 33.7868C25.2773 33.7931 26.692 33.9248 26.0583 33.79C25.8356 33.7429 25.569 33.7586 25.34 33.7398C24.7252 33.6927 25.9768 33.8495 25.3055 33.7335C25.1298 33.7022 24.9542 33.6739 24.7785 33.6426C24.2954 33.5579 23.8155 33.4607 23.3387 33.3572C18.9032 32.4134 14.521 31.1529 10.189 29.8139C9.22912 29.516 8.26925 29.215 7.31564 28.8889C6.97059 28.7698 6.62867 28.6443 6.28675 28.5252C6.17383 28.4875 6.06717 28.4374 5.95425 28.3966C5.50568 28.243 6.52829 28.7603 6.15501 28.4781C5.78799 28.1991 6.99882 29.4 6.99568 29.5693C6.99882 29.3028 6.85139 28.9422 6.79806 28.6757C6.76669 28.5126 6.74474 28.3464 6.71964 28.1802C6.82002 28.8419 6.69455 27.9702 6.682 27.8353C6.63181 27.2803 6.57535 26.7347 6.52829 26.1891C6.30558 23.6774 6.17069 21.1564 6.0609 18.6353C5.99503 17.1239 5.83191 15.5498 5.9417 14.0353C6.18951 10.6362 0.897639 10.6519 0.649827 14.0321Z" fill="white"/>
<path d="M15.9551 12.6556V8.65449C18.659 8.65449 19.2896 7.35632 19.4652 5.74146H23.3612V31.849H18.6936V12.6556H15.9551Z" fill="#111111"/>
</svg>
