<svg width="42" height="40" viewBox="0 0 42 40" fill="none" xmlns="http://www.w3.org/2000/svg">
<path d="M3.29686 25.1026C3.20903 24.2153 3.77052 9.16406 4.64257 8.48676C5.59931 7.74674 24.0785 2.27814 26.4594 2.73908C28.7587 3.18435 38.0187 11.2994 39.1103 13.6292C40.1298 15.7991 36.8863 31.5182 36.5318 32.0168C36.1209 32.5969 15.5243 37.1342 14.6115 36.4694C12.1083 34.6508 3.37528 25.9054 3.29686 25.1026Z" fill="white"/>
<path d="M5.94154 25.1026C5.69373 21.6722 6.1423 18.0443 6.39325 14.6232C6.46853 13.601 6.55009 12.5819 6.66301 11.5628C6.68497 11.3527 6.71007 11.1458 6.73516 10.9388C6.82927 10.1612 6.64106 11.4625 6.76026 10.7601C6.81672 10.434 6.92651 10.0859 6.95161 9.75669C6.95788 9.68771 7.02689 9.58737 7.01748 9.52152C7.06767 9.90407 6.15484 10.641 6.01369 10.7444C6.19249 10.6127 6.72575 10.4654 5.8443 10.7946C6.43716 10.5751 7.02689 10.3556 7.62603 10.1549C11.8075 8.75015 16.0767 7.55232 20.3554 6.4862C21.3059 6.25102 22.2563 6.02212 23.2131 5.8183C23.6616 5.72109 24.1102 5.63016 24.5588 5.5455C24.7407 5.511 24.9226 5.48278 25.1046 5.44829C25.7225 5.33227 25.2457 5.42007 25.2583 5.41693C25.5092 5.39185 25.8229 5.41693 26.0645 5.35735C26.673 5.20057 25.3273 5.47651 26.0111 5.36049C25.779 5.40126 25.5281 5.12532 25.848 5.29151C26.0362 5.38871 26.2213 5.48592 26.4032 5.59253C26.8612 5.85593 27.3004 6.15381 27.7333 6.45484C29.6467 7.79377 31.4253 9.34592 33.1349 10.9326C34.0132 11.7478 34.8759 12.5851 35.6883 13.4693C35.9769 13.786 36.2687 14.1059 36.5321 14.4445C36.2059 14.0243 36.4286 14.3379 36.4976 14.41C36.8992 14.8365 36.5102 14.965 36.598 14.4194C36.5949 14.4414 36.6451 14.6076 36.6608 14.6421C36.8396 15.0905 36.6451 13.9679 36.6451 14.5323C36.6451 14.8616 36.667 15.1877 36.6608 15.52C36.6419 16.4921 36.5416 17.4642 36.4318 18.4331C36.1965 20.4932 35.773 22.9422 35.3495 25.1873C35.0202 26.9339 34.6877 28.6867 34.2516 30.4113C34.2015 30.6057 34.1042 30.8284 34.0854 31.0322C34.0634 31.2768 33.6839 31.5558 34.2642 30.6559C33.6933 31.5433 35.5534 29.502 35.108 29.7967C35.2743 29.687 35.8044 29.571 35.2084 29.7309C34.9229 29.8061 34.6406 29.9033 34.3552 29.9849C30.4717 31.0761 26.4973 31.8882 22.5449 32.6815C21.3717 32.9167 20.1985 33.1425 19.0222 33.3557C18.5078 33.4466 17.9933 33.5376 17.4789 33.6191C17.2844 33.6505 17.0899 33.6818 16.8954 33.7132C16.8202 33.7257 15.9763 33.8449 16.4029 33.7884C16.726 33.7445 15.8164 33.8543 15.6313 33.87C15.4399 33.8825 15.1074 33.8292 14.9318 33.8951C14.6683 33.9923 15.7128 34.0299 15.3929 33.9609C15.9732 34.2557 16.1144 34.3027 15.8164 34.0989C16.0861 34.309 16.1426 34.3497 15.9826 34.2212C15.6783 33.8731 15.2298 33.5878 14.8816 33.2805C12.8646 31.4931 10.9385 29.5961 9.05016 27.6708C8.1938 26.7959 7.34371 25.9148 6.52813 25.0054C6.23954 24.6825 5.95409 24.3564 5.67804 24.0208C5.45846 23.7543 5.9039 24.5539 5.76901 24.1369C5.6655 23.8202 5.64354 23.5724 5.8443 24.4128C5.05695 21.1015 -0.0467166 22.5032 0.743771 25.8176C1.15156 27.5296 3.10269 29.1163 4.26959 30.3361C6.17367 32.3272 8.13734 34.2682 10.1606 36.1339C11.5377 37.4039 13.0246 39.1504 15.0227 39.1912C16.679 39.2257 18.4011 38.818 20.026 38.5327C24.7313 37.708 29.424 36.7015 34.0572 35.5381C35.2649 35.234 36.7329 35.0051 37.8183 34.3497C39.2549 33.4843 39.4431 31.5057 39.7631 30.0131C40.7763 25.3065 41.8522 20.3615 41.9464 15.5326C41.9871 13.3627 41.3472 11.9799 39.9607 10.3493C38.226 8.30801 36.1745 6.50188 34.1262 4.78667C32.3413 3.29722 30.4686 1.66354 28.3481 0.660128C26.582 -0.177094 24.8944 0.127065 23.0374 0.478259C18.2662 1.37506 13.5578 2.77357 8.92155 4.20029C7.15864 4.74276 5.06322 5.19117 3.44774 6.12873C1.61895 7.19172 1.58758 9.58423 1.37742 11.4437C1.07 14.2031 0.922571 16.9844 0.79396 19.7595C0.712402 21.5154 0.51478 23.3529 0.640255 25.1121C0.89434 28.4798 6.18935 28.5048 5.94154 25.1026Z" fill="white"/>
<path d="M19.5427 11.3998V15.4354H15.1543V10.8385C15.1543 8.41775 16.3839 5.96252 19.9286 5.96252H20.8759C24.2449 5.96252 26.1772 7.61188 26.1772 10.9796V12.4533C26.1772 15.2598 26.1082 16.6645 23.8967 19.5431C23.0905 20.6312 22.1777 21.7882 21.3339 22.8763C18.3507 26.8053 18.5954 27.2976 18.5954 27.8589H21.8609V23.4031H26.425V32.3868H14.5928V29.7215C14.5928 26.5293 14.9441 25.1591 17.7516 20.4932L19.9976 16.7743C21.2272 14.7048 21.2962 13.9334 21.2962 12.9833V11.3998C21.2962 10.5939 21.0139 10.2082 20.4179 10.2082C19.7529 10.2082 19.5427 10.5594 19.5427 11.3998Z" fill="#111111"/>
</svg>
