<svg width="42" height="40" viewBox="0 0 42 40" fill="none" xmlns="http://www.w3.org/2000/svg">
<path d="M3.29723 14.0598C3.20939 14.9472 3.77089 29.9984 4.64294 30.6757C5.59968 31.4157 24.0789 36.8843 26.4598 36.4234C28.7591 35.9781 38.0191 27.863 39.1107 25.5332C40.1302 23.3633 36.8867 7.64426 36.5322 7.14569C36.1213 6.56559 15.5247 2.02828 14.6119 2.69304C12.1087 4.51486 3.37565 13.2602 3.29723 14.0598Z" fill="white"/>
<path d="M0.649827 14.0598C0.364373 17.9825 0.885091 22.1624 1.22387 26.0694C1.38071 27.8944 1.33052 30.1709 2.23708 31.8171C2.98992 33.1843 4.63991 33.5762 6.01699 34.0434C10.647 35.6144 15.3899 36.9439 20.1454 38.0728C21.9836 38.5086 23.9096 39.0135 25.8074 39.0919C27.7428 39.1702 29.4022 38.0163 30.9016 36.9251C33.2762 35.1974 35.5316 33.2846 37.6459 31.2464C39.1139 29.8354 41.0682 28.1578 41.7018 26.151C42.2602 24.3824 41.9026 22.2282 41.6862 20.4315C41.3568 17.6941 40.9082 14.9692 40.3938 12.26C40.0581 10.4914 39.7664 8.66649 39.2488 6.93874C38.7532 5.27997 37.7212 4.66224 36.1622 4.19816C32.0215 2.96898 27.7272 2.13489 23.4955 1.29767C21.0802 0.817909 18.646 0.341296 16.1961 0.0716291C14.1508 -0.154139 12.9902 0.548246 11.4469 1.89031C9.18521 3.85637 7.04587 5.98235 4.95673 8.13029C3.62043 9.50371 1.21132 11.4039 0.74707 13.3606C-0.0402809 16.6687 5.06024 18.0829 5.84759 14.7654C5.7033 15.3768 5.59665 15.4583 5.70644 15.1354C5.74722 15.0193 6.0264 14.8061 5.73467 15.0789C5.4398 15.3549 6.15814 14.5866 6.28362 14.4455C6.98627 13.6459 7.7203 12.8745 8.46059 12.1094C10.1514 10.3629 11.886 8.65081 13.6678 6.99831C14.3704 6.3461 15.0856 5.70956 15.8165 5.0887C16.2745 4.69987 15.6377 5.14513 15.4464 5.20157C14.841 5.38658 14.8472 5.22352 15.4213 5.28937C15.6754 5.31759 15.9326 5.33641 16.1898 5.3615C16.9332 5.43362 15.8479 5.29565 16.6729 5.42734C17.5951 5.57158 18.5173 5.72523 19.4364 5.89455C23.7088 6.6722 27.9624 7.58469 32.1784 8.62573C32.8779 8.79819 33.5774 8.97378 34.2706 9.16819C34.5435 9.24345 34.8133 9.33125 35.0894 9.4065C35.5317 9.52566 35.7261 9.77965 35.0799 9.36574C35.563 9.67931 34.0322 8.16477 34.2612 8.5191C33.684 7.61917 34.0605 7.89511 34.0824 8.14283C34.1012 8.34351 34.1985 8.56614 34.2487 8.76369C34.4432 9.53193 34.6063 10.3064 34.7694 11.0841C35.654 15.3016 36.5762 19.4595 36.6578 23.655C36.6641 23.9842 36.6327 24.3135 36.6421 24.6427C36.6546 25.1946 36.777 24.1818 36.6703 24.4671C36.6484 24.5267 36.5856 24.6991 36.595 24.7556C36.4696 23.9999 36.9715 24.4013 36.595 24.6145C36.5417 24.6458 36.3974 24.8967 36.3786 24.9249C36.686 24.4891 35.8673 25.505 35.6822 25.7057C33.9695 27.5777 32.0592 29.2804 30.1049 30.8952C29.3332 31.5318 28.549 32.1495 27.7303 32.7233C27.3633 32.9804 26.99 33.2313 26.6042 33.4633C26.4128 33.5794 26.2152 33.6828 26.0207 33.7957C25.7133 33.9744 25.4749 33.8208 26.0082 33.8177C25.2804 33.8239 26.6951 33.9556 26.0615 33.8208C25.8388 33.7738 25.5721 33.7894 25.3431 33.7706C24.7283 33.7236 25.9799 33.8804 25.3086 33.7644C25.133 33.733 24.9573 33.7048 24.7816 33.6734C24.2986 33.5888 23.8186 33.4916 23.3418 33.3881C18.9063 32.4442 14.5241 31.1837 10.1921 29.8448C9.23226 29.5469 8.27238 29.2459 7.31878 28.9198C6.97373 28.8006 6.63181 28.6752 6.28989 28.556C6.17696 28.5184 6.07031 28.4682 5.95739 28.4275C5.50881 28.2738 6.53143 28.7912 6.15814 28.509C5.79113 28.2299 7.00196 29.4309 6.99882 29.6002C7.00196 29.3337 6.85453 28.9731 6.8012 28.7065C6.76983 28.5435 6.74787 28.3773 6.72278 28.2111C6.82316 28.8727 6.69768 28.001 6.68513 27.8662C6.62554 27.3206 6.57221 26.775 6.52202 26.2262C6.2993 23.7145 6.16442 21.1935 6.05463 18.6724C5.98875 17.161 5.82564 15.5869 5.93543 14.0724C6.18951 10.6639 0.897639 10.6796 0.649827 14.0598Z" fill="white"/>
<path d="M15.0673 14.0567V10.689C15.0673 8.30276 16.1903 5.70642 19.7004 5.70642H20.6822C24.2269 5.70642 25.8079 7.74147 25.8079 10.7235V13.6365C25.8079 16.1639 24.964 17.1453 24.1234 17.6031C25.422 18.0233 26.0557 19.0079 26.0557 20.5852V27.1105C26.0557 30.4782 24.0889 32.5132 20.861 32.5132H19.8792C16.0177 32.5132 14.7881 30.196 14.7881 27.8097V22.5449H19.3522V26.6872C19.3522 27.493 19.669 27.9163 20.334 27.9163C20.9646 27.9163 21.2814 27.4962 21.2814 26.6872V21.6011C21.2814 20.8642 21.2124 20.5475 20.4031 20.5475H17.9814V15.8817H20.1584C20.9645 15.8817 21.1402 15.565 21.1402 14.7246V11.1437C21.1402 10.1967 20.8955 9.95211 20.2274 9.95211C19.6314 9.95211 19.3491 10.1967 19.3491 11.1437V14.0567H15.0673Z" fill="#111111"/>
</svg>
