<svg width="42" height="40" viewBox="0 0 42 40" fill="none" xmlns="http://www.w3.org/2000/svg">
<path d="M3.29686 25.1304C3.20903 24.243 3.77052 9.19177 4.64257 8.51447C5.59931 7.77445 24.0785 2.30585 26.4594 2.76679C28.7587 3.21206 38.0187 11.3272 39.1103 13.657C40.1298 15.8268 36.8863 31.5459 36.5318 32.0445C36.1209 32.6246 15.5243 37.1619 14.6115 36.4972C12.1083 34.6785 3.37528 25.9331 3.29686 25.1304Z" fill="white"/>
<path d="M5.94154 25.1304C5.69373 21.6999 6.1423 18.072 6.39325 14.651C6.46853 13.6287 6.55009 12.6096 6.66301 11.5906C6.68497 11.3805 6.71007 11.1735 6.73516 10.9666C6.82927 10.1889 6.64106 11.4902 6.76026 10.7878C6.81672 10.4617 6.92651 10.1136 6.95161 9.7844C6.95788 9.71542 7.02689 9.61508 7.01748 9.54923C7.06767 9.93178 6.15484 10.6687 6.01369 10.7721C6.19249 10.6404 6.72575 10.4931 5.8443 10.8223C6.43716 10.6028 7.02689 10.3833 7.62603 10.1826C11.8075 8.77786 16.0767 7.58002 20.3554 6.5139C21.3059 6.27872 22.2563 6.04983 23.2131 5.84601C23.6616 5.7488 24.1102 5.65786 24.5588 5.5732C24.7407 5.53871 24.9226 5.51049 25.1046 5.47599C25.7225 5.35997 25.2457 5.44778 25.2583 5.44464C25.5092 5.41956 25.8229 5.44464 26.0645 5.38507C26.673 5.22828 25.3273 5.50421 26.0111 5.3882C25.779 5.42896 25.5281 5.15302 25.848 5.31921C26.0362 5.41642 26.2213 5.51363 26.4032 5.62024C26.8612 5.88364 27.3004 6.18153 27.7333 6.48255C29.6467 7.82148 31.4253 9.37363 33.1349 10.9603C34.0132 11.7756 34.8759 12.6128 35.6883 13.497C35.9769 13.8137 36.2687 14.1336 36.5321 14.4722C36.2059 14.052 36.4286 14.3656 36.4976 14.4377C36.8992 14.8642 36.5102 14.9927 36.598 14.4471C36.5949 14.4691 36.6451 14.6353 36.6608 14.6698C36.8396 15.1182 36.6451 13.9956 36.6451 14.56C36.6451 14.8893 36.667 15.2154 36.6608 15.5478C36.6419 16.5198 36.5416 17.4919 36.4318 18.4608C36.1965 20.5209 35.773 22.9699 35.3495 25.215C35.0202 26.9616 34.6877 28.7144 34.2516 30.439C34.2015 30.6334 34.1042 30.8561 34.0854 31.0599C34.0634 31.3045 33.6839 31.5835 34.2642 30.6836C33.6933 31.571 35.5534 29.5297 35.108 29.8244C35.2743 29.7147 35.8044 29.5987 35.2084 29.7586C34.9229 29.8339 34.6406 29.9311 34.3552 30.0126C30.4717 31.1038 26.4973 31.9159 22.5449 32.7093C21.3717 32.9444 20.1985 33.1702 19.0222 33.3834C18.5078 33.4744 17.9933 33.5653 17.4789 33.6468C17.2844 33.6782 17.0899 33.7095 16.8954 33.7409C16.8202 33.7534 15.9763 33.8726 16.4029 33.8161C16.726 33.7723 15.8164 33.882 15.6313 33.8977C15.4399 33.9102 15.1074 33.8569 14.9318 33.9228C14.6683 34.02 15.7128 34.0576 15.3929 33.9886C15.9732 34.2834 16.1144 34.3304 15.8164 34.1266C16.0861 34.3367 16.1426 34.3774 15.9826 34.2489C15.6783 33.9008 15.2298 33.6155 14.8816 33.3082C12.8646 31.5208 10.9385 29.6238 9.05016 27.6985C8.1938 26.8236 7.34371 25.9425 6.52813 25.0331C6.23954 24.7102 5.95409 24.3841 5.67804 24.0485C5.45846 23.782 5.9039 24.5816 5.76901 24.1646C5.6655 23.8479 5.64354 23.6001 5.8443 24.4405C5.05695 21.1292 -0.0467166 22.5309 0.743771 25.8453C1.15156 27.5573 3.10269 29.144 4.26959 30.3638C6.17367 32.3549 8.13734 34.2959 10.1606 36.1616C11.5377 37.4316 13.0246 39.1781 15.0227 39.2189C16.679 39.2534 18.4011 38.8458 20.026 38.5604C24.7313 37.7357 29.424 36.7292 34.0572 35.5658C35.2649 35.2617 36.7329 35.0328 37.8183 34.3774C39.2549 33.512 39.4431 31.5334 39.7631 30.0408C40.7763 25.3342 41.8522 20.3892 41.9464 15.5603C41.9871 13.3904 41.3472 12.0076 39.9607 10.3771C38.226 8.33573 36.1745 6.52958 34.1262 4.81437C32.3413 3.32493 30.4686 1.69125 28.3481 0.687836C26.582 -0.149387 24.8944 0.154777 23.0374 0.505972C18.2662 1.40277 13.5578 2.80128 8.92155 4.228C7.15864 4.77047 5.06322 5.21887 3.44774 6.15644C1.61895 7.21943 1.58758 9.61195 1.37742 11.4714C1.07 14.2308 0.922571 17.0121 0.79396 19.7872C0.712402 21.5431 0.51478 23.3806 0.640255 25.1397C0.89434 28.5075 6.18935 28.5325 5.94154 25.1304Z" fill="white"/>
<path d="M12.9307 24.0266C14.336 20.2011 17.4948 11.3585 18.7934 7.53296H22.8996V23.5343H25.3212V27.9901H22.8996V33.8161H18.3355V27.9901H12.9307V24.0266ZM18.3355 17.1814C17.774 18.8997 16.9302 21.5682 16.193 23.5311H18.3355V17.1814Z" fill="#111111"/>
</svg>
