<svg width="42" height="40" viewBox="0 0 42 40" fill="none" xmlns="http://www.w3.org/2000/svg">
<path d="M2.72887 14.8504C2.64103 15.7378 3.20253 30.7889 4.07458 31.4663C5.03132 32.2063 23.5105 37.6749 25.8914 37.2139C28.1907 36.7687 37.4507 28.6536 38.5423 26.3238C39.5618 24.1539 36.3183 8.43479 35.9638 7.93621C35.5529 7.35612 14.9563 2.8188 14.0435 3.48356C11.5403 5.30539 2.80729 14.0508 2.72887 14.8504Z" fill="white"/>
<path d="M0.0814678 14.8504C-0.203986 18.7731 0.316732 22.9529 0.655512 26.8599C0.812355 28.6849 0.762165 30.9614 1.66872 32.6076C2.42156 33.9748 4.07155 34.3667 5.44863 34.8339C10.0786 36.4049 14.8215 37.7344 19.577 38.8633C21.4152 39.2991 23.3412 39.804 25.239 39.8824C27.1745 39.9608 28.8339 38.8068 30.3333 37.7156C32.7079 35.9879 34.9633 34.0751 37.0775 32.0369C38.5456 30.6259 40.4998 28.9483 41.1335 26.9415C41.6918 25.173 41.3342 23.0188 41.1178 21.222C40.7884 18.4846 40.3399 15.7597 39.8254 13.0505C39.4898 11.282 39.198 9.457 38.6805 7.72925C38.1848 6.07048 37.1528 5.45276 35.5938 4.98868C31.4531 3.7595 27.1588 2.92542 22.9272 2.08819C20.5118 1.60844 18.0776 1.13182 15.6277 0.862156C13.5825 0.636388 12.4219 1.33877 10.8785 2.68084C8.61685 4.6469 6.47751 6.77289 4.38837 8.92082C3.05207 10.2942 0.642965 12.1945 0.17871 14.1511C-0.60864 17.4592 4.49189 18.8734 5.27924 15.5559C5.13494 16.1673 5.02829 16.2489 5.13808 15.9259C5.17886 15.8099 5.45804 15.5966 5.16631 15.8694C4.87144 16.1454 5.58978 15.3771 5.71526 15.236C6.41791 14.4364 7.15194 13.6651 7.89224 12.9C9.583 11.1534 11.3177 9.44133 13.0994 7.78883C13.8021 7.13661 14.5173 6.50008 15.2482 5.87922C15.7061 5.4904 15.0694 5.93566 14.878 5.9921C14.2726 6.1771 14.2789 6.01406 14.8529 6.07991C15.107 6.10813 15.3642 6.12694 15.6214 6.15202C16.3649 6.22414 15.2795 6.08616 16.1045 6.21786C17.0268 6.3621 17.949 6.51576 18.8681 6.68509C23.1405 7.46273 27.3941 8.3752 31.61 9.41624C32.3095 9.5887 33.009 9.76431 33.7023 9.95872C33.9752 10.034 34.2449 10.1218 34.521 10.197C34.9633 10.3162 35.1578 10.5702 34.5116 10.1563C34.9947 10.4698 33.4639 8.95531 33.6929 9.30964C33.1157 8.4097 33.4921 8.68564 33.5141 8.93336C33.5329 9.13404 33.6301 9.35666 33.6803 9.55421C33.8748 10.3224 34.0379 11.097 34.201 11.8746C35.0856 16.0921 36.0079 20.25 36.0894 24.4455C36.0957 24.7747 36.0643 25.104 36.0737 25.4332C36.0863 25.9851 36.2086 24.9723 36.102 25.2576C36.08 25.3172 36.0173 25.4897 36.0267 25.5461C35.9012 24.7904 36.4031 25.1918 36.0267 25.405C35.9734 25.4363 35.8291 25.6872 35.8102 25.7154C36.1177 25.2796 35.2989 26.2955 35.1139 26.4962C33.4011 28.3682 31.4908 30.0709 29.5365 31.6857C28.7649 32.3223 27.9806 32.94 27.1619 33.5138C26.7949 33.771 26.4216 34.0218 26.0358 34.2538C25.8445 34.3699 25.6468 34.4733 25.4523 34.5862C25.1449 34.765 24.9065 34.6113 25.4398 34.6082C24.712 34.6145 26.1268 34.7462 25.4931 34.6113C25.2704 34.5643 25.0038 34.58 24.7748 34.5611C24.16 34.5141 25.4116 34.6709 24.7403 34.5549C24.5646 34.5235 24.389 34.4953 24.2133 34.4639C23.7302 34.3793 23.2503 34.2821 22.7735 34.1786C18.338 33.2348 13.9558 31.9742 9.62378 30.6353C8.6639 30.3374 7.70402 30.0364 6.75042 29.7103C6.40537 29.5911 6.06345 29.4657 5.72153 29.3465C5.60861 29.3089 5.50195 29.2587 5.38903 29.218C4.94046 29.0643 5.96307 29.5817 5.58978 29.2995C5.22277 29.0204 6.4336 30.2214 6.43046 30.3907C6.4336 30.1242 6.28617 29.7636 6.23284 29.4971C6.20147 29.334 6.17951 29.1678 6.15442 29.0016C6.2548 29.6632 6.12932 28.7915 6.11678 28.6567C6.05718 28.1111 6.00385 27.5655 5.95366 27.0167C5.73094 24.5051 5.59606 21.984 5.48627 19.4629C5.42039 17.9515 5.25728 16.3774 5.36707 14.8629C5.62115 11.4544 0.329279 11.4701 0.0814678 14.8504Z" fill="white"/>
<path d="M16.004 21.3506V6.85754H26.7101V11.3854H20.4991V16.5436C21.2018 15.3144 22.2557 14.0884 23.6924 14.0884H24.1128C26.2552 14.0884 27.0269 15.8788 27.0269 17.4906V28.2647C27.0269 30.8956 25.5181 33.3539 22.0769 33.3539H20.6716C16.7757 33.3539 15.7217 30.7231 15.7217 28.7225V23.3888H20.3893V27.7034C20.3893 28.4403 20.565 28.9326 21.2676 28.9326C21.9358 28.9326 22.146 28.4058 22.146 27.7034V19.8078C22.146 19.1399 22.146 18.5097 21.3398 18.5097C20.6371 18.5097 20.6026 19.2121 20.6026 19.7733V21.3537H16.004V21.3506Z" fill="#111111"/>
</svg>
