<svg width="42" height="41" viewBox="0 0 42 41" fill="none" xmlns="http://www.w3.org/2000/svg">
<path d="M2.7285 25.9209C2.64067 25.0335 3.20217 9.9823 4.07421 9.305C5.03095 8.56498 23.5102 3.09638 25.891 3.55732C28.1903 4.00258 37.4503 12.1177 38.542 14.4475C39.5614 16.6174 36.3179 32.3365 35.9635 32.835C35.5525 33.4151 14.956 37.9524 14.0431 37.2877C11.5399 35.469 2.80692 26.7236 2.7285 25.9209Z" fill="white"/>
<path d="M5.37318 25.9209C5.12537 22.4905 5.57394 18.8625 5.82489 15.4415C5.90017 14.4193 5.98173 13.4002 6.09466 12.3811C6.11661 12.171 6.14171 11.964 6.1668 11.7571C6.26091 10.9794 6.0727 12.2807 6.1919 11.5784C6.24836 11.2522 6.35815 10.9042 6.38325 10.5749C6.38952 10.506 6.45853 10.4056 6.44912 10.3398C6.49931 10.7223 5.58649 11.4592 5.44533 11.5627C5.62413 11.431 6.15739 11.2836 5.27594 11.6128C5.8688 11.3933 6.45853 11.1739 7.05767 10.9732C11.2391 9.5684 15.5084 8.37057 19.787 7.30444C20.7375 7.06927 21.688 6.84036 22.6447 6.63654C23.0933 6.53934 23.5418 6.4484 23.9904 6.36374C24.1723 6.32925 24.3543 6.30103 24.5362 6.26654C25.1542 6.15052 24.6774 6.2383 24.6899 6.23517C24.9409 6.21008 25.2546 6.23517 25.4961 6.17559C26.1047 6.01881 24.7589 6.29475 25.4428 6.17873C25.2106 6.21949 24.9597 5.94356 25.2797 6.10975C25.4679 6.20696 25.6529 6.30415 25.8349 6.41076C26.2929 6.67416 26.732 6.97205 27.1649 7.27307C29.0784 8.612 30.857 10.1642 32.5666 11.7508C33.4449 12.5661 34.3075 13.4033 35.12 14.2876C35.4086 14.6043 35.7003 14.9241 35.9638 15.2628C35.6376 14.8426 35.8603 15.1561 35.9293 15.2283C36.3308 15.6547 35.9418 15.7833 36.0297 15.2377C36.0265 15.2596 36.0767 15.4258 36.0924 15.4603C36.2712 15.9087 36.0767 14.7861 36.0767 15.3506C36.0767 15.6798 36.0987 16.0059 36.0924 16.3383C36.0736 17.3104 35.9732 18.2824 35.8634 19.2513C35.6281 21.3115 35.2047 23.7604 34.7812 26.0055C34.4518 27.7521 34.1193 29.505 33.6833 31.2296C33.6331 31.424 33.5359 31.6466 33.517 31.8504C33.4951 32.095 33.1155 32.3741 33.6958 31.4741C33.1249 32.3615 34.9851 30.3202 34.5397 30.615C34.7059 30.5052 35.236 30.3892 34.64 30.5491C34.3546 30.6244 34.0723 30.7216 33.7868 30.8031C29.9034 31.8943 25.929 32.7065 21.9765 33.4998C20.8034 33.735 19.6302 33.9607 18.4539 34.174C17.9394 34.2649 17.425 34.3558 16.9105 34.4374C16.716 34.4687 16.5216 34.5001 16.3271 34.5314C16.2518 34.544 15.408 34.6631 15.8346 34.6067C16.1577 34.5628 15.248 34.6725 15.0629 34.6882C14.8716 34.7007 14.5391 34.6474 14.3634 34.7133C14.0999 34.8105 15.1445 34.8481 14.8245 34.7791C15.4048 35.0739 15.546 35.1209 15.248 34.9171C15.5178 35.1272 15.5742 35.168 15.4143 35.0394C15.11 34.6914 14.6614 34.406 14.3132 34.0987C12.2962 32.3114 10.3702 30.4143 8.4818 28.489C7.62544 27.6142 6.77535 26.733 5.95977 25.8237C5.67118 25.5007 5.38573 25.1746 5.10968 24.8391C4.8901 24.5725 5.33554 25.3721 5.20065 24.9551C5.09714 24.6384 5.07518 24.3907 5.27594 25.231C4.48859 21.9198 -0.615076 23.3214 0.175411 26.6358C0.583202 28.3479 2.53433 29.9345 3.70124 31.1543C5.60531 33.1455 7.56898 35.0864 9.59225 36.9522C10.9693 38.2221 12.4562 39.9687 14.4544 40.0094C16.1106 40.0439 17.8328 39.6363 19.4577 39.351C24.1629 38.5263 28.8557 37.5197 33.4888 36.3564C34.6965 36.0522 36.1645 35.8233 37.2499 35.168C38.6866 34.3025 38.8748 32.3239 39.1947 30.8313C40.2079 26.1247 41.2839 21.1798 41.378 16.3508C41.4188 14.1809 40.7789 12.7981 39.3924 11.1676C37.6577 9.12627 35.6062 7.32011 33.5578 5.6049C31.7729 4.11545 29.9002 2.48178 27.7797 1.47837C26.0137 0.641145 24.3261 0.945299 22.469 1.29649C17.6979 2.19329 12.9895 3.5918 8.35319 5.01853C6.59028 5.561 4.49486 6.00941 2.87938 6.94697C1.05059 8.00996 1.01923 10.4025 0.809056 12.2619C0.501644 15.0213 0.354212 17.8026 0.225601 20.5777C0.144043 22.3337 -0.0535791 24.1712 0.0718951 25.9303C0.32598 29.298 5.62099 29.3231 5.37318 25.9209Z" fill="white"/>
<path d="M24.4677 16.6017C26.7482 16.6017 27.6265 18.4612 27.6265 19.9004V28.5329C27.6265 31.1293 25.8008 33.7601 22.2907 33.7601H21.2367C17.4819 33.7601 15.7598 31.4083 15.7598 28.6709V12.494C15.7598 9.22976 17.4098 6.95013 21.1646 6.95013H22.1464C25.4809 6.95013 27.1309 9.01968 27.1309 11.2648V15.1938H22.3252V12.2808C22.3252 11.6129 22.184 11.2617 21.4814 11.2617C20.8132 11.2617 20.6031 11.754 20.6031 12.2808V18.9127C21.2712 18.1413 22.3942 16.5954 24.1822 16.5954H24.4677V16.6017ZM22.7487 27.9716V21.97C22.7487 21.023 22.4319 20.6718 21.6947 20.6718C20.9575 20.6718 20.6062 21.092 20.6062 21.9355V27.9716C20.6062 28.674 20.7474 29.3388 21.6947 29.3388C22.642 29.3388 22.7487 28.6395 22.7487 27.9716Z" fill="#111111"/>
</svg>
