<svg width="129" height="77" viewBox="0 0 129 77" fill="none" xmlns="http://www.w3.org/2000/svg">
<path d="M108.357 51.3615H102.458L91.6533 75.8209H97.8114L100.375 67.7064L104.406 67.6919L104.704 75.4541H109.504L108.357 51.3615ZM104.704 63.5888H101.622L104.704 57.0286V63.5888Z" fill="#FFC64F"/>
<path d="M1.33057 42.2815L31.6891 43.4883V48.5279L7.75267 46.6115L7.89666 54.8467L13.0468 54.2771L12.9076 58.3271H7.89666L8.10785 76.6464L3.16408 75.5796L1.33057 42.2815Z" fill="#FFC64F"/>
<path d="M21.0918 71.2061V67.1416L35.2607 66.5913L34.848 52.409L15.4761 53.6496L15.8169 75.821H37.3151L38.4094 70.7958L21.0918 71.2061ZM20.8854 57.0914H30.5378L30.8786 61.431H20.8854V57.0914Z" fill="#FFC64F"/>
<path d="M57.0563 55.0736L56.5284 50.7243L40.8139 51.9456L40.3579 66.4513L53.7925 65.3797L54.0229 71.0275H43.1706L42.105 75.4589H60.0178L57.8915 60.1132L45.3737 60.9435L45.5993 55.2281L57.0563 55.0736Z" fill="#FFC64F"/>
<path d="M35.2451 49.3341L35.5091 43.4014L76.12 42.9187L76.7152 46.5343L66.3141 46.4667L68.3684 75.4589H65.3205L61.2119 46.5536L35.2451 49.3341Z" fill="#FFC64F"/>
<path d="M71.6182 57.5596H76.4035V75.8209H72.1845L71.6182 57.5596Z" fill="#FFC64F"/>
<path d="M70.4238 49.7009H76.4043V54.586H71.619L70.4238 49.7009Z" fill="#FFC64F"/>
<path d="M79.7163 43.8745L80.3499 75.8209H88.7927L96.7459 47.8617L106.739 47.5818L107.089 43.7586L92.5221 43.4738L84.3337 70.4048L84.5017 43.8745H79.7163Z" fill="#FFC64F"/>
<path d="M110.616 41.3209L117.921 40.5872L117.465 71.1579L128.131 69.3139V75.4589L112.277 75.8209L110.616 41.3209Z" fill="#FFC64F"/>
<path d="M17.7153 3.90039L27.7853 4.22381V31.01L43.7829 26.5883L44.2293 38.1977H19.6304L17.7153 3.90039Z" fill="#FFC64F"/>
<path d="M53.3399 13.1928L30.397 12.2321L31.6257 26.7186L37.515 25.7194L36.8863 22.2872L47.609 21.4038L47.6714 37.7294L59.0084 37.7246L53.3399 13.1928ZM36.3295 18.8502L35.3983 15.5581L46.5386 16.4946L47.1578 18.8502H36.3295Z" fill="#FFC64F"/>
<path d="M38.3408 10.002L39.7088 3.90037L82.1964 2.12396L82.7436 7.51112L63.2085 9.55786L69.1698 38.4776L61.9413 38.4439L57.5207 10.1564L38.3408 10.002Z" fill="#FFC64F"/>
<path d="M88.5837 39.1969L84.811 2.38947L94.809 4.17553L101.375 28.9729L99.124 4.12726L106.328 3.68316L106.77 37.3577L96.8153 36.8895L92.5531 18.6716L93.5322 38.1591L88.5837 39.1969Z" fill="#FFC64F"/>
<path d="M126.518 0L108.941 3.74109L110.237 36.7737L128.61 34.5194L126.518 0ZM116.073 29.4315L114.384 9.85233L122.443 10.1951L122.457 26.5786L116.073 29.4315Z" fill="#FFC64F"/>
<path d="M16.3528 23.3733L15.0665 2.72253L0 3.90037L2.03991 37.6377L9.26837 37.6715L7.20926 24.7491L16.3528 23.3733ZM5.41415 10.6681H10.0555L10.6747 18.5123L6.4989 18.4061L5.41415 10.6681Z" fill="#FFC64F"/>
<path d="M82.3971 10.8805L68.041 13.5548L71.9048 37.4205L75.9222 37.3867L73.9351 26.4241L79.2965 26.9358L79.9301 39.7376H84.5474L82.3971 10.8805ZM73.4696 22.6203L72.812 16.6732L78.0389 15.6498L79.0229 22.992L73.4696 22.6203Z" fill="#FFC64F"/>
<path d="M32.1583 2.42328L37.2173 3.7218L35.4078 9.73167L30.4448 9.78477L32.1583 2.42328Z" fill="#FFC64F"/>
</svg>
